<?xml version="1.0" standalone="no"?>
<!DOCTYPE svg PUBLIC "-//W3C//DTD SVG 20010904//EN"
 "http://www.w3.org/TR/2001/REC-SVG-20010904/DTD/svg10.dtd">
<svg version="1.0" xmlns="http://www.w3.org/2000/svg"
 width="512.000000pt" height="512.000000pt" viewBox="0 0 512.000000 512.000000"
 preserveAspectRatio="xMidYMid meet">
<metadata>
Created by potrace 1.11, written by Peter Selinger 2001-2013
</metadata>
<g transform="translate(0.000000,512.000000) scale(0.100000,-0.100000)"
fill="#000000" stroke="none">
<path d="M685 2560 l0 -2235 915 1 c971 1 1109 4 1310 33 301 44 627 182 825
348 355 298 587 763 669 1343 29 204 30 745 1 960 -2 19 -7 58 -10 85 -12 96
-55 301 -85 398 -193 638 -615 1083 -1163 1226 -109 28 -269 51 -477 67 -47 4
-513 7 -1035 8 l-951 1 1 -2235z m1815 1466 c25 -3 74 -8 110 -11 279 -27 513
-158 653 -364 131 -194 199 -424 224 -758 14 -186 6 -772 -12 -803 -1 -3 -6
-34 -9 -70 -16 -155 -76 -360 -148 -506 -139 -282 -384 -410 -823 -430 -144
-6 -895 -7 -902 0 -4 4 -8 2766 -4 2928 l1 28 433 -5 c237 -2 452 -7 477 -9z"/>
</g>
</svg>
